REM DIRINDEX 1\2,1\3,1\4,1\5
REM DIRNAME cjc004,folder01,folder02,folder03,folder04
TITLE ""
FILE "1Q_t_0830-0839.mp3" MP3
  TRACK 01 AUDIO
    TITLE "3:cjc004_3393"
    INDEX 01 00:00:00
  TRACK 02 AUDIO
    TITLE "0:"
    INDEX 01 00:00:72
  TRACK 03 AUDIO
    TITLE "4:cjc004_3394"
    INDEX 01 00:01:32
  TRACK 04 AUDIO
    TITLE "0:"
    INDEX 01 00:02:65
  TRACK 05 AUDIO
    TITLE "5:cjc004_3395"
    INDEX 01 00:03:19
  TRACK 06 AUDIO
    TITLE "0:"
    INDEX 01 00:07:35
  TRACK 07 AUDIO
    TITLE "3:cjc004_3396"
    INDEX 01 00:08:09
  TRACK 08 AUDIO
    TITLE "0:"
    INDEX 01 00:09:30
  TRACK 09 AUDIO
    TITLE "4:cjc004_3397"
    INDEX 01 00:09:61
  TRACK 10 AUDIO
    TITLE "0:"
    INDEX 01 00:10:68
  TRACK 11 AUDIO
    TITLE "5:cjc004_3398"
    INDEX 01 00:11:23
  TRACK 12 AUDIO
    TITLE "0:"
    INDEX 01 00:16:48
  TRACK 13 AUDIO
    TITLE "3:cjc004_3399"
    INDEX 01 00:17:27
  TRACK 14 AUDIO
    TITLE "0:"
    INDEX 01 00:18:42
  TRACK 15 AUDIO
    TITLE "4:cjc004_3400"
    INDEX 01 00:19:01
  TRACK 16 AUDIO
    TITLE "0:"
    INDEX 01 00:20:26
  TRACK 17 AUDIO
    TITLE "5:cjc004_3401"
    INDEX 01 00:20:55
  TRACK 18 AUDIO
    TITLE "0:"
    INDEX 01 00:25:41
  TRACK 19 AUDIO
    TITLE "3:cjc004_3402"
    INDEX 01 00:26:20
  TRACK 20 AUDIO
    TITLE "0:"
    INDEX 01 00:27:65
  TRACK 21 AUDIO
    TITLE "4:cjc004_3403"
    INDEX 01 00:28:17
  TRACK 22 AUDIO
    TITLE "0:"
    INDEX 01 00:29:38
  TRACK 23 AUDIO
    TITLE "5:cjc004_3404"
    INDEX 01 00:29:68
  TRACK 24 AUDIO
    TITLE "0:"
    INDEX 01 00:34:14
  TRACK 25 AUDIO
    TITLE "3:cjc004_3405"
    INDEX 01 00:34:73
  TRACK 26 AUDIO
    TITLE "0:"
    INDEX 01 00:36:05
  TRACK 27 AUDIO
    TITLE "4:cjc004_3406"
    INDEX 01 00:36:40
  TRACK 28 AUDIO
    TITLE "0:"
    INDEX 01 00:37:69
  TRACK 29 AUDIO
    TITLE "5:cjc004_3407"
    INDEX 01 00:38:18
  TRACK 30 AUDIO
    TITLE "0:"
    INDEX 01 00:42:41
  TRACK 31 AUDIO
    TITLE "3:cjc004_3408"
    INDEX 01 00:43:17
  TRACK 32 AUDIO
    TITLE "0:"
    INDEX 01 00:44:26
  TRACK 33 AUDIO
    TITLE "4:cjc004_3409"
    INDEX 01 00:44:58
  TRACK 34 AUDIO
    TITLE "0:"
    INDEX 01 00:45:69
  TRACK 35 AUDIO
    TITLE "5:cjc004_3410"
    INDEX 01 00:46:17
  TRACK 36 AUDIO
    TITLE "0:"
    INDEX 01 00:51:05
  TRACK 37 AUDIO
    TITLE "3:cjc004_3411"
    INDEX 01 00:51:63
  TRACK 38 AUDIO
    TITLE "0:"
    INDEX 01 00:53:08
  TRACK 39 AUDIO
    TITLE "4:cjc004_3412"
    INDEX 01 00:53:39
  TRACK 40 AUDIO
    TITLE "0:"
    INDEX 01 00:54:56
  TRACK 41 AUDIO
    TITLE "5:cjc004_3413"
    INDEX 01 00:55:01
  TRACK 42 AUDIO
    TITLE "0:"
    INDEX 01 00:59:65
  TRACK 43 AUDIO
    TITLE "3:cjc004_3414"
    INDEX 01 01:00:47
  TRACK 44 AUDIO
    TITLE "0:"
    INDEX 01 01:01:62
  TRACK 45 AUDIO
    TITLE "4:cjc004_3415"
    INDEX 01 01:02:12
  TRACK 46 AUDIO
    TITLE "0:"
    INDEX 01 01:03:41
  TRACK 47 AUDIO
    TITLE "5:cjc004_3416"
    INDEX 01 01:03:73
  TRACK 48 AUDIO
    TITLE "0:"
    INDEX 01 01:09:50
  TRACK 49 AUDIO
    TITLE "3:cjc004_3417"
    INDEX 01 01:10:30
  TRACK 50 AUDIO
    TITLE "0:"
    INDEX 01 01:11:35
  TRACK 51 AUDIO
    TITLE "4:cjc004_3418"
    INDEX 01 01:11:56
  TRACK 52 AUDIO
    TITLE "0:"
    INDEX 01 01:12:71
  TRACK 53 AUDIO
    TITLE "5:cjc004_3419"
    INDEX 01 01:13:20
  TRACK 54 AUDIO
    TITLE "0:"
    INDEX 01 01:18:27
  TRACK 55 AUDIO
    TITLE "3:cjc004_3420"
    INDEX 01 01:19:03
  TRACK 56 AUDIO
    TITLE "0:"
    INDEX 01 01:20:20
  TRACK 57 AUDIO
    TITLE "4:cjc004_3421"
    INDEX 01 01:20:49
  TRACK 58 AUDIO
    TITLE "0:"
    INDEX 01 01:22:17
  TRACK 59 AUDIO
    TITLE "5:cjc004_3422"
    INDEX 01 01:22:44
  TRACK 60 AUDIO
    TITLE "0:"
    INDEX 01 01:26:50
